<svg width="77" height="77" fill="none" xmlns="http://www.w3.org/2000/svg"><path d="M73.3 5.88c-1.62 0-2.94-1.32-2.94-2.94C70.36 1.32 71.68 0 73.3 0c1.62 0 2.94 1.32 2.94 2.94 0 1.62-1.31 2.94-2.94 2.94zm2.94 14.65c0-1.62-1.32-2.94-2.94-2.94-1.62 0-2.94 1.32-2.94 2.94 0 1.62 1.32 2.94 2.94 2.94 1.63 0 2.94-1.31 2.94-2.94zm0 17.59c0-1.62-1.32-2.94-2.94-2.94-1.62 0-2.94 1.32-2.94 2.94 0 1.62 1.32 2.94 2.94 2.94 1.63 0 2.94-1.31 2.94-2.94zm0 17.59c0-1.62-1.32-2.94-2.94-2.94-1.62 0-2.94 1.32-2.94 2.94 0 1.62 1.32 2.94 2.94 2.94 1.63.01 2.94-1.31 2.94-2.94zm0 17.6c0-1.62-1.32-2.94-2.94-2.94-1.62 0-2.94 1.32-2.94 2.94 0 1.62 1.32 2.94 2.94 2.94 1.63 0 2.94-1.32 2.94-2.94zM58.65 2.94c0-1.62-1.32-2.94-2.94-2.94-1.62 0-2.94 1.32-2.94 2.94 0 1.62 1.32 2.94 2.94 2.94 1.63 0 2.94-1.32 2.94-2.94zm0 17.59c0-1.62-1.32-2.94-2.94-2.94-1.62 0-2.94 1.32-2.94 2.94 0 1.62 1.32 2.94 2.94 2.94 1.63 0 2.94-1.31 2.94-2.94zm0 17.59c0-1.62-1.32-2.94-2.94-2.94-1.62 0-2.94 1.32-2.94 2.94 0 1.62 1.32 2.94 2.94 2.94 1.63 0 2.94-1.31 2.94-2.94zm0 17.59c0-1.62-1.32-2.94-2.94-2.94-1.62 0-2.94 1.32-2.94 2.94 0 1.62 1.32 2.94 2.94 2.94 1.63.01 2.94-1.31 2.94-2.94zm0 17.6c0-1.62-1.32-2.94-2.94-2.94-1.62 0-2.94 1.32-2.94 2.94 0 1.62 1.32 2.94 2.94 2.94 1.63 0 2.94-1.32 2.94-2.94zM41.06 2.94c0-1.62-1.32-2.94-2.94-2.94-1.62 0-2.94 1.32-2.94 2.94 0 1.62 1.32 2.94 2.94 2.94 1.62 0 2.94-1.32 2.94-2.94zm0 17.59c0-1.62-1.32-2.94-2.94-2.94-1.62 0-2.94 1.32-2.94 2.94 0 1.62 1.32 2.94 2.94 2.94 1.62 0 2.94-1.31 2.94-2.94zm0 17.59c0-1.62-1.32-2.94-2.94-2.94-1.62 0-2.94 1.32-2.94 2.94 0 1.62 1.32 2.94 2.94 2.94 1.62 0 2.94-1.31 2.94-2.94zm0 17.59c0-1.62-1.32-2.94-2.94-2.94-1.62 0-2.94 1.32-2.94 2.94 0 1.62 1.32 2.94 2.94 2.94 1.62 0 2.94-1.31 2.94-2.94zm0 17.6c0-1.62-1.32-2.94-2.94-2.94-1.62 0-2.94 1.32-2.94 2.94 0 1.62 1.32 2.94 2.94 2.94 1.62 0 2.94-1.32 2.94-2.94zM23.47 2.94c0-1.62-1.32-2.94-2.94-2.94-1.62 0-2.94 1.32-2.94 2.94 0 1.62 1.32 2.94 2.94 2.94 1.62 0 2.94-1.32 2.94-2.94zm0 17.59c0-1.62-1.32-2.94-2.94-2.94-1.62 0-2.94 1.32-2.94 2.94 0 1.62 1.32 2.94 2.94 2.94 1.62 0 2.94-1.31 2.94-2.94zm0 17.59c0-1.62-1.32-2.94-2.94-2.94-1.62 0-2.94 1.32-2.94 2.94 0 1.62 1.32 2.94 2.94 2.94 1.62 0 2.94-1.31 2.94-2.94zm0 17.59c0-1.62-1.32-2.94-2.94-2.94-1.62 0-2.94 1.32-2.94 2.94 0 1.62 1.32 2.94 2.94 2.94 1.62.01 2.94-1.31 2.94-2.94zm0 17.6c0-1.62-1.32-2.94-2.94-2.94-1.62 0-2.94 1.32-2.94 2.94 0 1.62 1.32 2.94 2.94 2.94 1.62 0 2.94-1.32 2.94-2.94zM5.88 2.94C5.88 1.32 4.56 0 2.94 0 1.32 0 0 1.32 0 2.94c0 1.62 1.32 2.94 2.94 2.94 1.62 0 2.94-1.32 2.94-2.94zm0 17.59c0-1.62-1.32-2.94-2.94-2.94-1.62 0-2.94 1.32-2.94 2.94 0 1.62 1.32 2.94 2.94 2.94 1.62 0 2.94-1.31 2.94-2.94zm0 17.59c0-1.62-1.32-2.94-2.94-2.94C1.32 35.18 0 36.5 0 38.12c0 1.62 1.32 2.94 2.94 2.94 1.62 0 2.94-1.31 2.94-2.94zm0 17.59c0-1.62-1.32-2.94-2.94-2.94-1.62 0-2.94 1.32-2.94 2.94 0 1.62 1.32 2.94 2.94 2.94 1.62.01 2.94-1.31 2.94-2.94zm0 17.6c0-1.62-1.32-2.94-2.94-2.94-1.62 0-2.94 1.32-2.94 2.94 0 1.62 1.32 2.94 2.94 2.94 1.62 0 2.94-1.32 2.94-2.94z" fill="#FF3B63"/></svg>