<svg width="130" height="132" fill="none" xmlns="http://www.w3.org/2000/svg"><rect y="8.797" width="129.15" height="123.203" rx="20" fill="#fff"/><path d="M0 28.797c0-11.045 8.954-20 20-20h89.15c11.046 0 20 8.955 20 20v12.288H0V28.797z" fill="#6957ED"/><path fill="#EBEBEB" d="M13.595 57.229h19.543v11.895H13.595zm0 23.79h19.543v11.895H13.595zm0 23.792h19.543v11.895H13.595zm28.039-47.582h19.543v11.895H41.634zm0 23.79h19.543v11.895H41.634zm0 23.792h19.543v11.895H41.634zm28.039-47.582h19.543v11.895H69.673zm0 23.79h19.543v11.895H69.673zm0 23.792h19.543v11.895H69.673zm28.039-47.582h19.543v11.895H97.712zm0 23.79h19.543v11.895H97.712zm0 23.792h19.543v11.895H97.712z"/><g filter="url(#filter0_d)"><rect x="107.909" y="2" width="5.948" height="13.595" rx="2.974" fill="#fff"/></g><g filter="url(#filter1_d)"><rect x="78.17" y="2" width="5.948" height="13.595" rx="2.974" fill="#fff"/></g><g filter="url(#filter2_d)"><rect x="48.431" y="2" width="5.948" height="13.595" rx="2.974" fill="#fff"/></g><g filter="url(#filter3_d)"><rect x="18.693" y="2" width="5.948" height="13.595" rx="2.974" fill="#fff"/></g><path d="M54.317 69.124c8.029 3.715 22.758 19.154 5.934 28.558-21.991 7.661-40.492-24.379-7.33-26.468" stroke="#FF3B63" stroke-width="3" stroke-miterlimit="3.869"/><defs><filter id="filter0_d" x="103.909" y="0" width="13.948" height="21.595" filterUnits="userSpaceOnUse" color-interpolation-filters="sRGB"><feFlood flood-opacity="0" result="BackgroundImageFix"/><feColorMatrix in="SourceAlpha" values="0 0 0 0 0 0 0 0 0 0 0 0 0 0 0 0 0 0 127 0"/><feOffset dy="2"/><feGaussianBlur stdDeviation="2"/><feColorMatrix values="0 0 0 0 0.0791667 0 0 0 0 0.0791667 0 0 0 0 0.0791667 0 0 0 0.2 0"/><feBlend in2="BackgroundImageFix" result="effect1_dropShadow"/><feBlend in="SourceGraphic" in2="effect1_dropShadow" result="shape"/></filter><filter id="filter1_d" x="74.17" y="0" width="13.948" height="21.595" filterUnits="userSpaceOnUse" color-interpolation-filters="sRGB"><feFlood flood-opacity="0" result="BackgroundImageFix"/><feColorMatrix in="SourceAlpha" values="0 0 0 0 0 0 0 0 0 0 0 0 0 0 0 0 0 0 127 0"/><feOffset dy="2"/><feGaussianBlur stdDeviation="2"/><feColorMatrix values="0 0 0 0 0.0791667 0 0 0 0 0.0791667 0 0 0 0 0.0791667 0 0 0 0.2 0"/><feBlend in2="BackgroundImageFix" result="effect1_dropShadow"/><feBlend in="SourceGraphic" in2="effect1_dropShadow" result="shape"/></filter><filter id="filter2_d" x="44.431" y="0" width="13.948" height="21.595" filterUnits="userSpaceOnUse" color-interpolation-filters="sRGB"><feFlood flood-opacity="0" result="BackgroundImageFix"/><feColorMatrix in="SourceAlpha" values="0 0 0 0 0 0 0 0 0 0 0 0 0 0 0 0 0 0 127 0"/><feOffset dy="2"/><feGaussianBlur stdDeviation="2"/><feColorMatrix values="0 0 0 0 0.0791667 0 0 0 0 0.0791667 0 0 0 0 0.0791667 0 0 0 0.2 0"/><feBlend in2="BackgroundImageFix" result="effect1_dropShadow"/><feBlend in="SourceGraphic" in2="effect1_dropShadow" result="shape"/></filter><filter id="filter3_d" x="14.693" y="0" width="13.948" height="21.595" filterUnits="userSpaceOnUse" color-interpolation-filters="sRGB"><feFlood flood-opacity="0" result="BackgroundImageFix"/><feColorMatrix in="SourceAlpha" values="0 0 0 0 0 0 0 0 0 0 0 0 0 0 0 0 0 0 127 0"/><feOffset dy="2"/><feGaussianBlur stdDeviation="2"/><feColorMatrix values="0 0 0 0 0.0791667 0 0 0 0 0.0791667 0 0 0 0 0.0791667 0 0 0 0.2 0"/><feBlend in2="BackgroundImageFix" result="effect1_dropShadow"/><feBlend in="SourceGraphic" in2="effect1_dropShadow" result="shape"/></filter></defs></svg>