<svg width="658" height="644" fill="none" xmlns="http://www.w3.org/2000/svg"><g opacity=".58"><path d="M328.488 566.999C186.511 566.999 71 451.488 71 309.487S186.511 51.999 328.488 51.999C470.464 52 586 167.512 586 309.488S470.489 566.999 328.488 566.999zm0-510.025c-139.241 0-252.513 113.273-252.513 252.513s113.272 252.538 252.513 252.538c139.24 0 252.537-113.273 252.537-252.538 0-139.24-113.297-252.513-252.537-252.513z" fill="#6957ED"/><path d="M328.488 524.889c-118.769 0-215.377-96.632-215.377-215.377 0-118.77 96.632-215.377 215.377-215.377 118.77 0 215.377 96.632 215.377 215.377.025 118.745-96.607 215.377-215.377 215.377zm0-413.741c-109.367 0-198.339 88.972-198.339 198.339 0 109.368 88.972 198.339 198.339 198.339 109.368 0 198.339-88.971 198.339-198.339 0-109.367-88.971-198.339-198.339-198.339z" fill="#FF3B63" fill-opacity=".74"/><path d="M328.488 482.754c-95.538 0-173.267-77.729-173.267-173.267S232.95 136.22 328.488 136.22s173.266 77.729 173.266 173.267-77.728 173.267-173.266 173.267zm0-341.559c-92.802 0-168.293 75.49-168.293 168.292s75.491 168.292 168.293 168.292 168.292-75.49 168.292-168.292-75.49-168.292-168.292-168.292z" fill="#6957ED"/><path d="M328.488 440.643c-72.306 0-131.156-58.825-131.156-131.156s58.825-131.156 131.156-131.156c72.332 0 131.157 58.825 131.157 131.156S400.82 440.643 328.488 440.643zm0-257.313c-69.57 0-126.182 56.612-126.182 126.182s56.612 126.182 126.182 126.182c69.571 0 126.182-56.612 126.182-126.182S398.084 183.33 328.488 183.33z" fill="#6957ED"/><path d="M328.487 398.533c-49.1 0-89.021-39.946-89.021-89.046 0-49.1 39.946-89.021 89.021-89.021 49.1 0 89.046 39.946 89.046 89.021 0 49.1-39.946 89.046-89.046 89.046zm0-173.093c-46.339 0-84.047 37.708-84.047 84.047s37.708 84.072 84.047 84.072 84.072-37.708 84.072-84.072c0-46.364-37.708-84.047-84.072-84.047z" fill="#6957ED"/><path d="M328.488 356.422c-25.868 0-46.911-21.042-46.911-46.911 0-25.868 21.043-46.91 46.911-46.91 25.868 0 46.911 21.042 46.911 46.91.024 25.844-21.043 46.911-46.911 46.911zm0-88.872c-23.132 0-41.937 18.805-41.937 41.937 0 23.132 18.805 41.936 41.937 41.936 23.132 0 41.936-18.804 41.936-41.936.025-23.108-18.804-41.937-41.936-41.937z" fill="#6957ED"/></g><path d="M596.052 382.251c-8.104 34.245-23.04 66.597-43.954 95.208-20.914 28.612-47.397 52.922-77.937 71.544-30.54 18.621-64.538 31.189-100.054 36.986a280.809 280.809 0 01-106.939-3.202c-35.085-7.911-68.23-22.489-97.543-42.903-29.313-20.414-54.219-46.263-73.297-76.072-19.078-29.808-31.954-62.993-37.893-97.659a261.382 261.382 0 013.28-104.38l267.169 60.239 267.168 60.239z" fill="#C6E8FB"/></svg>