<svg width="540" height="539" fill="none" xmlns="http://www.w3.org/2000/svg"><path d="M248.654 221.398c-60.766 0-110.199-49.433-110.199-110.199S187.888 1 248.654 1s110.199 49.433 110.199 110.199-49.433 110.199-110.199 110.199zm0-219.031c-60 0-108.833 48.816-108.833 108.832 0 60 48.817 108.833 108.833 108.833s108.832-48.817 108.832-108.833C357.47 51.183 308.653 2.367 248.654 2.367z" fill="#0E0D4C"/><path d="M248.654 210.765c-54.9 0-99.566-44.666-99.566-99.566 0-54.9 44.666-99.566 99.566-99.566 54.9 0 99.566 44.667 99.566 99.566 0 54.9-44.666 99.566-99.566 99.566zm0-196.382c-53.383 0-96.816 43.433-96.816 96.816s43.433 96.816 96.816 96.816 96.816-43.433 96.816-96.816c-.017-53.383-43.433-96.816-96.816-96.816z" fill="#0E0D4C"/><path d="M248.654 183.099c-39.65 0-71.917-32.267-71.917-71.916 0-39.65 32.267-71.917 71.917-71.917 39.649 0 71.916 32.267 71.916 71.917 0 39.666-32.267 71.916-71.916 71.916zm0-141.066c-38.134 0-69.15 31.016-69.15 69.15 0 38.133 31.016 69.149 69.15 69.149 38.133 0 69.149-31.016 69.149-69.149 0-38.117-31.016-69.15-69.149-69.15z" fill="#0E0D4C"/><path d="M248.654 170.749c-32.833 0-59.55-26.717-59.55-59.55s26.717-59.566 59.55-59.566 59.566 26.717 59.566 59.566c-.016 32.833-26.733 59.55-59.566 59.55zm0-117.733c-32.083 0-58.183 26.1-58.183 58.183s26.1 58.183 58.183 58.183 58.183-26.1 58.183-58.183-26.1-58.183-58.183-58.183z" fill="#0E0D4C"/><path d="M248.654 148.232c-20.433 0-37.05-16.616-37.05-37.049 0-20.434 16.617-37.05 37.05-37.05 20.433 0 37.05 16.616 37.05 37.05 0 20.433-16.634 37.049-37.05 37.049zm0-71.333c-18.9 0-34.283 15.384-34.283 34.284 0 18.899 15.383 34.283 34.283 34.283 18.9 0 34.283-15.384 34.283-34.283 0-18.9-15.383-34.284-34.283-34.284z" fill="#0E0D4C"/><path d="M248.654 129.599c-10.15 0-18.417-8.267-18.417-18.416 0-10.15 8.267-18.417 18.417-18.417 10.15 0 18.416 8.267 18.416 18.417-.016 10.166-8.266 18.416-18.416 18.416zm0-35.433c-9.4 0-17.033 7.65-17.033 17.033 0 9.4 7.633 17.033 17.033 17.033 9.4 0 17.033-7.633 17.033-17.033 0-9.4-7.65-17.033-17.033-17.033z" fill="#0E0D4C"/><path d="M488.884 320.01a224.552 224.552 0 01-99.816 139.9 224.54 224.54 0 01-169.506 28.344 224.552 224.552 0 01-139.9-99.816 224.547 224.547 0 01-28.344-169.506L270.1 269.471l218.783 50.539z" fill="#FF3B63"/></svg>