<svg width="113" height="78" fill="none" xmlns="http://www.w3.org/2000/svg"><path d="M107.785 24.021c.288 3.04-.804 6.38-3.142 9.866-2.342 3.49-5.905 7.076-10.457 10.544-9.1 6.932-22.03 13.292-36.626 17.396-14.596 4.103-28.027 5.155-37.934 3.566-4.954-.794-8.993-2.244-11.856-4.27-2.86-2.024-4.51-4.594-4.797-7.634-.287-3.039.804-6.38 3.143-9.865 2.342-3.49 5.904-7.077 10.456-10.544 9.101-6.933 22.03-13.292 36.627-17.396 14.596-4.104 28.027-5.156 37.933-3.567 4.955.794 8.994 2.244 11.857 4.27 2.859 2.025 4.509 4.595 4.796 7.634z" stroke="#FF3B63" stroke-width="1.5"/><path d="M111.675 32.065c.075 3.16-1.286 6.4-3.925 9.585-2.642 3.188-6.538 6.28-11.432 9.09-9.786 5.621-23.437 10.047-38.627 11.908-15.189 1.86-28.969.793-38.963-2.406-4.998-1.599-9.016-3.721-11.793-6.245-2.773-2.522-4.278-5.413-4.352-8.571-.075-3.159 1.286-6.4 3.925-9.585 2.642-3.188 6.537-6.28 11.432-9.09 9.786-5.621 23.437-10.047 38.626-11.907 15.19-1.86 28.97-.794 38.964 2.405 4.998 1.6 9.016 3.721 11.793 6.246 2.773 2.52 4.278 5.412 4.352 8.57z" stroke="#FF3B63" stroke-width="1.5"/></svg>