<svg width="658" height="644" viewBox="0 0 658 644" fill="none" xmlns="http://www.w3.org/2000/svg">
<g opacity="0.58">
<path d="M328.488 566.999C186.511 566.999 71 451.488 71 309.487C71 167.486 186.511 51.9995 328.488 51.9995C470.464 51.9995 586 167.511 586 309.487C586 451.463 470.489 566.999 328.488 566.999ZM328.488 56.9742C189.247 56.9742 75.9746 170.247 75.9746 309.487C75.9746 448.727 189.247 562.025 328.488 562.025C467.728 562.025 581.025 448.752 581.025 309.487C581.025 170.247 467.728 56.9742 328.488 56.9742Z" fill="#6957ED"/>
<path d="M328.488 524.889C209.719 524.889 113.111 428.257 113.111 309.512C113.111 190.742 209.743 94.1348 328.488 94.1348C447.258 94.1348 543.865 190.767 543.865 309.512C543.89 428.257 447.258 524.889 328.488 524.889ZM328.488 111.148C219.121 111.148 130.149 200.12 130.149 309.487C130.149 418.855 219.121 507.826 328.488 507.826C437.856 507.826 526.827 418.855 526.827 309.487C526.827 200.12 437.856 111.148 328.488 111.148Z" fill="#FF3B63" fill-opacity="0.74"/>
<path d="M328.488 482.754C232.95 482.754 155.221 405.025 155.221 309.487C155.221 213.949 232.95 136.22 328.488 136.22C424.026 136.22 501.754 213.949 501.754 309.487C501.754 405.025 424.026 482.754 328.488 482.754ZM328.488 141.195C235.686 141.195 160.195 216.685 160.195 309.487C160.195 402.289 235.686 477.779 328.488 477.779C421.29 477.779 496.78 402.289 496.78 309.487C496.78 216.685 421.29 141.195 328.488 141.195Z" fill="#6957ED"/>
<path d="M328.488 440.643C256.182 440.643 197.332 381.818 197.332 309.487C197.332 237.156 256.157 178.331 328.488 178.331C400.82 178.331 459.645 237.156 459.645 309.487C459.645 381.818 400.82 440.643 328.488 440.643ZM328.488 183.33C258.918 183.33 202.306 239.942 202.306 309.512C202.306 379.082 258.918 435.694 328.488 435.694C398.059 435.694 454.67 379.082 454.67 309.512C454.67 239.942 398.084 183.33 328.488 183.33Z" fill="#6957ED"/>
<path d="M328.487 398.533C279.387 398.533 239.466 358.587 239.466 309.487C239.466 260.387 279.412 220.466 328.487 220.466C377.587 220.466 417.533 260.412 417.533 309.487C417.533 358.587 377.587 398.533 328.487 398.533ZM328.487 225.44C282.148 225.44 244.44 263.148 244.44 309.487C244.44 355.826 282.148 393.559 328.487 393.559C374.826 393.559 412.559 355.851 412.559 309.487C412.559 263.123 374.851 225.44 328.487 225.44Z" fill="#6957ED"/>
<path d="M328.488 356.422C302.62 356.422 281.577 335.38 281.577 309.511C281.577 283.643 302.62 262.601 328.488 262.601C354.356 262.601 375.399 283.643 375.399 309.511C375.423 335.355 354.356 356.422 328.488 356.422ZM328.488 267.55C305.356 267.55 286.551 286.355 286.551 309.487C286.551 332.619 305.356 351.423 328.488 351.423C351.62 351.423 370.424 332.619 370.424 309.487C370.449 286.379 351.62 267.55 328.488 267.55Z" fill="#6957ED"/>
</g>
<path d="M596.052 382.251C587.948 416.496 573.012 448.848 552.098 477.459C531.184 506.071 504.701 530.381 474.161 549.003C443.621 567.624 409.623 580.192 374.107 585.989C338.591 591.785 302.254 590.697 267.168 582.787C232.083 574.876 198.938 560.298 169.625 539.884C140.312 519.47 115.406 493.621 96.3279 463.812C77.2499 434.004 64.3739 400.819 58.4351 366.153C52.4963 331.487 53.6111 296.019 61.7157 261.773L328.884 322.012L596.052 382.251Z" fill="#C6E8FB"/>
</svg>
