<svg width="540" height="539" viewBox="0 0 540 539" fill="none" xmlns="http://www.w3.org/2000/svg">
<path d="M248.654 221.398C187.888 221.398 138.455 171.965 138.455 111.199C138.455 50.433 187.888 1 248.654 1C309.42 1 358.853 50.433 358.853 111.199C358.853 171.965 309.42 221.398 248.654 221.398ZM248.654 2.36662C188.654 2.36662 139.821 51.183 139.821 111.199C139.821 171.199 188.638 220.032 248.654 220.032C308.67 220.032 357.486 171.215 357.486 111.199C357.47 51.183 308.653 2.36662 248.654 2.36662Z" fill="#0E0D4C"/>
<path d="M248.654 210.765C193.754 210.765 149.088 166.099 149.088 111.199C149.088 56.2996 193.754 11.6333 248.654 11.6333C303.554 11.6333 348.22 56.2996 348.22 111.199C348.22 166.099 303.554 210.765 248.654 210.765ZM248.654 14.3832C195.271 14.3832 151.838 57.8163 151.838 111.199C151.838 164.582 195.271 208.015 248.654 208.015C302.037 208.015 345.47 164.582 345.47 111.199C345.453 57.8163 302.037 14.3832 248.654 14.3832Z" fill="#0E0D4C"/>
<path d="M248.654 183.099C209.004 183.099 176.737 150.832 176.737 111.183C176.737 71.5328 209.004 39.2664 248.654 39.2664C288.303 39.2664 320.57 71.5328 320.57 111.183C320.57 150.849 288.303 183.099 248.654 183.099ZM248.654 42.033C210.52 42.033 179.504 73.0495 179.504 111.183C179.504 149.316 210.52 180.332 248.654 180.332C286.787 180.332 317.803 149.316 317.803 111.183C317.803 73.0661 286.787 42.033 248.654 42.033Z" fill="#0E0D4C"/>
<path d="M248.654 170.749C215.821 170.749 189.104 144.032 189.104 111.199C189.104 78.3661 215.821 51.633 248.654 51.633C281.487 51.633 308.22 78.3495 308.22 111.199C308.204 144.032 281.487 170.749 248.654 170.749ZM248.654 53.0163C216.571 53.0163 190.471 79.1161 190.471 111.199C190.471 143.282 216.571 169.382 248.654 169.382C280.737 169.382 306.837 143.282 306.837 111.199C306.837 79.1161 280.737 53.0163 248.654 53.0163Z" fill="#0E0D4C"/>
<path d="M248.654 148.232C228.221 148.232 211.604 131.616 211.604 111.183C211.604 90.7494 228.221 74.1328 248.654 74.1328C269.087 74.1328 285.704 90.7494 285.704 111.183C285.704 131.616 269.07 148.232 248.654 148.232ZM248.654 76.8994C229.754 76.8994 214.371 92.2827 214.371 111.183C214.371 130.082 229.754 145.466 248.654 145.466C267.554 145.466 282.937 130.082 282.937 111.183C282.937 92.2827 267.554 76.8994 248.654 76.8994Z" fill="#0E0D4C"/>
<path d="M248.654 129.599C238.504 129.599 230.237 121.332 230.237 111.183C230.237 101.033 238.504 92.766 248.654 92.766C258.804 92.766 267.07 101.033 267.07 111.183C267.054 121.349 258.804 129.599 248.654 129.599ZM248.654 94.166C239.254 94.166 231.621 101.816 231.621 111.199C231.621 120.599 239.254 128.232 248.654 128.232C258.054 128.232 265.687 120.599 265.687 111.199C265.687 101.799 258.037 94.166 248.654 94.166Z" fill="#0E0D4C"/>
<path d="M488.884 320.01C482.247 348.741 470.016 375.883 452.89 399.887C435.763 423.891 414.076 444.287 389.068 459.91C364.059 475.533 336.218 486.077 307.134 490.94C278.05 495.804 248.293 494.891 219.562 488.254C190.831 481.617 163.689 469.386 139.685 452.26C115.68 435.133 95.2845 413.447 79.6616 388.438C64.0387 363.429 53.4946 335.588 48.6313 306.504C43.7681 277.42 44.6809 247.663 51.3177 218.932L270.101 269.471L488.884 320.01Z" fill="#FF3B63"/>
</svg>
