<svg width="113" height="78" viewBox="0 0 113 78" fill="none" xmlns="http://www.w3.org/2000/svg">
<path d="M107.785 24.021C108.073 27.0602 106.981 30.4013 104.643 33.8868C102.301 37.3766 98.7382 40.9634 94.1865 44.4306C85.0852 51.3634 72.1561 57.7228 57.5599 61.8266C42.9637 65.9303 29.5329 66.9821 19.6263 65.3934C14.6718 64.5989 10.633 63.1494 7.77 61.1228C4.91061 59.0988 3.26043 56.5285 2.97318 53.4893C2.68594 50.4502 3.7774 47.1091 6.11605 43.6236C8.45762 40.1337 12.0204 36.547 16.5721 33.0798C25.6734 26.147 38.6025 19.7876 53.1987 15.6838C67.7949 11.5801 81.2257 10.5283 91.1323 12.1169C96.0868 12.9115 100.126 14.361 102.989 16.3876C105.848 18.4116 107.498 20.9819 107.785 24.021Z" stroke="#FF3B63" stroke-width="1.5"/>
<path d="M111.675 32.0654C111.75 35.2241 110.389 38.4659 107.75 41.6499C105.108 44.8382 101.212 47.9292 96.3182 50.7403C86.5317 56.3612 72.8808 60.7874 57.6915 62.6476C42.5023 64.5077 28.7221 63.441 18.7279 60.2425C13.7299 58.643 9.71207 56.521 6.93508 53.9965C4.16178 51.4753 2.65692 48.5844 2.58257 45.4257C2.50822 42.267 3.86872 39.0253 6.50772 35.8413C9.15023 32.653 13.0453 29.5619 17.9396 26.7509C27.7261 21.13 41.377 16.7038 56.5663 14.8436C71.7555 12.9834 85.5357 14.0502 95.5299 17.2486C100.528 18.8482 104.546 20.9701 107.323 23.4947C110.096 26.0159 111.601 28.9067 111.675 32.0654Z" stroke="#FF3B63" stroke-width="1.5"/>
</svg>
