<svg width="20" height="20" viewBox="0 0 20 20" fill="none" xmlns="http://www.w3.org/2000/svg">
<path d="M8.76363 1.80517C9.15278 0.607464 10.8472 0.607462 11.2364 1.80517L12.6268 6.0845C12.8009 6.62013 13.3 6.98278 13.8632 6.98278H18.3627C19.6221 6.98278 20.1457 8.59428 19.1269 9.3345L15.4866 11.9793C15.031 12.3103 14.8404 12.8971 15.0144 13.4327L16.4048 17.7121C16.794 18.9098 15.4232 19.9057 14.4043 19.1655L10.7641 16.5207C10.3085 16.1897 9.69151 16.1897 9.23588 16.5207L5.59566 19.1655C4.57683 19.9057 3.20601 18.9098 3.59516 17.7121L4.98561 13.4327C5.15964 12.8971 4.96899 12.3103 4.51335 11.9793L0.873134 9.3345C-0.145694 8.59428 0.377913 6.98278 1.63725 6.98278H6.13681C6.70001 6.98278 7.19915 6.62013 7.37319 6.0845L8.76363 1.80517Z" fill="#FFDB73"/>
</svg>
